<svg xmlns="http://www.w3.org/2000/svg" viewBox="0 0 69.01 69.01"><defs><style>.cls-1{fill:#f8f8f6;}.cls-2{fill:#919073;}.cls-3{fill:#fa8013;}.cls-4{fill:#ffcb4c;}.cls-5{fill:#e72b33;}</style></defs><title>ejecuta</title><g id="Capa_2" data-name="Capa 2"><g id="Capa_14" data-name="Capa 14"><circle class="cls-1" cx="34.51" cy="34.5" r="32.29"/><path class="cls-2" d="M34.51,69A34.5,34.5,0,1,1,69,34.5,34.54,34.54,0,0,1,34.51,69Zm0-66.8A32.29,32.29,0,1,0,66.8,34.5,32.33,32.33,0,0,0,34.51,2.21Z"/><path class="cls-3" d="M16,16.08l5.69,7.35a17.21,17.21,0,0,1,25-1.53l5.46-7.42A26.37,26.37,0,0,0,16,16.08Z"/><path class="cls-4" d="M23.88,47.81a17.22,17.22,0,0,1-2.07-24.54L16,16a26.39,26.39,0,0,0,2,38.82Z"/><path class="cls-5" d="M52.12,14.48,46.66,21.9a17.19,17.19,0,0,1,0,25.2l6.73,6.25a26.38,26.38,0,0,0-1.31-38.86Z"/><path class="cls-2" d="M55.66,27.11c-.9.15-20.09,12.95-20.09,12.95a3.63,3.63,0,0,1-3.33-3.2c-.53-3.11,1.09-3.15,1.09-3.15Z"/></g></g></svg>