<svg xmlns="http://www.w3.org/2000/svg" viewBox="0 0 244.1 219.59"><defs><style>.cls-1{fill:#554848;}</style></defs><title>like</title><g id="Capa_2" data-name="Capa 2"><g id="Capa_1-2" data-name="Capa 1"><path class="cls-1" d="M40.67,219.59H16a16,16,0,0,1-16-16V95.77a16,16,0,0,1,16-16H40.67a16,16,0,0,1,16,16V203.58A16,16,0,0,1,40.67,219.59ZM16,95.3a.47.47,0,0,0-.47.47V203.58a.47.47,0,0,0,.47.48H40.67a.47.47,0,0,0,.47-.48V95.77a.47.47,0,0,0-.47-.47Z"/><path class="cls-1" d="M187.15,219.59H93.51a27.09,27.09,0,0,1-27.06-27.06V94.14a25.38,25.38,0,0,1,6.28-16.71l64-73.18A12.05,12.05,0,0,1,146.3,0a12.43,12.43,0,0,1,9.42,4.51l9.66,11.71a17.35,17.35,0,0,1,3.41,15.43l-9.92,37.81h63A14.25,14.25,0,0,1,231,72.8l8,6.71a14.19,14.19,0,0,1,5.08,11l-.1,22.92a55,55,0,0,1-5.15,23.15l-33.36,71.36A20.32,20.32,0,0,1,187.15,219.59ZM146.06,17.23,84.43,87.67A9.83,9.83,0,0,0,82,94.14v98.39a11.53,11.53,0,0,0,11.52,11.52h93.64a4.73,4.73,0,0,0,4.27-2.72L224.78,130a39.45,39.45,0,0,0,3.69-16.6l.1-22.35-7.16-6H138.73l15-57.29a1.79,1.79,0,0,0-.35-1.59Zm83,74.18h0Z"/></g></g></svg>