<svg xmlns="http://www.w3.org/2000/svg" viewBox="0 0 341.89 100.31"><defs><style>.cls-1,.cls-3{fill:#fff;}.cls-1,.cls-2{fill-rule:evenodd;}.cls-2{fill:#771e97;}</style></defs><title>nodrizablanco</title><g id="Capa_2" data-name="Capa 2"><g id="Capa_1-2" data-name="Capa 1"><path class="cls-1" d="M0,73.6H13V48.87c0-6.48,2-16.78,11.41-16.78,8.31,0,8.41,8.34,8.41,14.53v27h13V41.71c0-11.38-5.12-19.82-16.92-19.82-6.77,0-12.28,2.26-16.34,8h-.19V23.06H0Z"/><path class="cls-1" d="M138.58,48.19c0-6.77,2.32-16.1,10.73-16.1s11.6,9,11.6,16.1-2.8,16.39-11.41,16.39S138.58,55.15,138.58,48.19ZM161.4,73.6H174V0H161V29h-.19c-3.87-4.81-8.41-7.07-14.89-7.07-15.28,0-20.88,12.36-20.88,26.3s5.61,26.6,20.88,26.6c6.09,0,11.41-2,15.28-6.87h.19Z"/><path class="cls-1" d="M187.59,73.6h13V55.06c0-7.26,0-20.61,10.54-20.61a13,13,0,0,1,5.8,1.08V22.28a14,14,0,0,0-4-.39c-7.73,0-13.05,7.95-13.63,12.66h-.19V23.06h-11.5Z"/><path class="cls-1" d="M225.2,73.6h13V23.06h-13Zm0-59.77h13V1.28h-13Z"/><polygon class="cls-1" points="249.66 33.27 273.83 33.27 248.6 62.91 248.6 73.6 289.97 73.6 289.97 63.4 264.36 63.4 289.1 33.86 289.1 23.06 249.66 23.06 249.66 33.27"/><path class="cls-1" d="M302.73,37a25.81,25.81,0,0,1,15.37-5.5c7.64,0,11.21,2.75,11.21,10.89h-7.15c-5.41,0-11.79.49-16.73,2.94s-8.51,6.87-8.51,14.43c0,9.62,8.6,15,17.4,15,5.9,0,12.38-3.14,15.37-8.73h.19a62.68,62.68,0,0,0,.58,7.56h11.41c-.29-3.92-.48-7.46-.58-11.29s-.19-7.56-.19-12.66V43.18c0-14.92-6.28-21.3-21.46-21.3a44,44,0,0,0-17.31,3.83Zm6.58,22c0-7.75,8.6-8.73,14.4-8.73h5.61c0,3.93-.58,7.56-2.7,10.4a11,11,0,0,1-9.09,4.52C312.89,65.17,309.31,63.3,309.31,59Z"/><polygon class="cls-2" points="74.11 92.48 74.11 88.65 97.05 85 97.05 88.82 74.11 92.48"/><polygon class="cls-2" points="74.11 92.48 74.11 88.65 97.05 85 97.05 88.82 74.11 92.48"/><polygon class="cls-2" points="74.11 92.48 74.11 88.65 97.05 85 97.05 88.82 74.11 92.48"/><polygon class="cls-2" points="74.11 99.48 74.11 95.67 97.05 92.02 97.05 96 74.11 99.48"/><path class="cls-2" d="M85.17,17.23c-17.52,0-31.65,14.42-31.65,32.21,0,22.86,20.74,28,20.74,32.2v3.81l22.86-3.81c0-4.18,19.74-9.34,19.74-32.2C116.86,31.65,102.69,17.23,85.17,17.23ZM96.65,52.62,92.48,63,88.8,55.12l-3.66,8.17-3.66-8.17L77.79,63,73.61,52.62a1.07,1.07,0,0,1,.58-1.39,1,1,0,0,1,1.37.58l2.37,5.89,3.59-7.65,3.62,8.07,3.62-8.07,3.59,7.65,2.37-5.89a1,1,0,0,1,1.37-.58A1.07,1.07,0,0,1,96.65,52.62Z"/><path class="cls-1" d="M110.28,100.14h3.15c3.35,0,5.78-2,5.78-6.12s-2-6.13-5.78-6.13h-3.15Zm2.21-10.53h.74c2.49,0,3.61,1.72,3.61,4.41s-1.12,4.4-3.61,4.4h-.74Z"/><polygon class="cls-1" points="122.31 100.14 128.83 100.14 128.83 98.35 124.53 98.35 124.53 94.73 128.43 94.73 128.43 92.94 124.53 92.94 124.53 89.67 128.66 89.67 128.66 87.88 122.31 87.88 122.31 100.14"/><path class="cls-1" d="M131.72,99.77a5.45,5.45,0,0,0,2.75.54c2.3,0,4-1.19,4-3.68a3.33,3.33,0,0,0-2.09-3.3l-1.3-.74c-.67-.39-1.28-.74-1.28-1.65s.57-1.44,1.68-1.44a5.72,5.72,0,0,1,2.27.53l.1-1.88a7.8,7.8,0,0,0-2.53-.44c-2,0-3.8,1.14-3.8,3.34a3.45,3.45,0,0,0,2,3.21l1.12.63c1.07.6,1.57,1,1.57,1.86a1.68,1.68,0,0,1-1.83,1.77,4.87,4.87,0,0,1-2.56-.76Z"/><path class="cls-1" d="M144,95.47l1.66-5.72h0l1.52,5.72Zm4.53,4.67h2.28L147,87.88h-2.42l-4,12.25h2.21l.86-2.95h4.15Z"/><path class="cls-1" d="M153.18,100.14h2.21V94.87h.5a1.57,1.57,0,0,1,1.68,1.28l1.2,4h2.35l-1.57-4.67c-.38-1.14-.88-1.35-1.33-1.42V94a2.74,2.74,0,0,0,2.34-2.88c0-2.25-1.45-3.23-3.6-3.23h-3.77Zm2.21-6.91V89.6h.9c1.25,0,2,.35,2,1.76a1.75,1.75,0,0,1-2,1.86Z"/><path class="cls-1" d="M163.83,100.14H166V94.87h.5a1.57,1.57,0,0,1,1.68,1.28l1.2,4h2.35l-1.57-4.67c-.38-1.14-.88-1.35-1.33-1.42V94a2.74,2.74,0,0,0,2.33-2.88c0-2.25-1.45-3.23-3.6-3.23h-3.77ZM166,93.22V89.6h.9c1.25,0,2,.35,2,1.76a1.75,1.75,0,0,1-2,1.86Z"/><path class="cls-1" d="M176.38,94c0-3.37,1.12-4.58,2.53-4.58s2.53,1.21,2.53,4.58-1.12,4.58-2.53,4.58S176.38,97.38,176.38,94Zm-2.28,0c0,4.4,2.3,6.3,4.81,6.3s4.81-1.9,4.81-6.3-2.3-6.3-4.81-6.3S174.1,89.6,174.1,94Z"/><polygon class="cls-1" points="186.72 100.14 192.92 100.14 192.92 98.35 188.94 98.35 188.94 87.88 186.72 87.88 186.72 100.14"/><polygon class="cls-1" points="195.44 100.14 201.63 100.14 201.63 98.35 197.65 98.35 197.65 87.88 195.44 87.88 195.44 100.14"/><path class="cls-1" d="M206.63,95.47l1.66-5.72h0l1.52,5.72Zm4.53,4.67h2.28l-3.89-12.25h-2.42l-4,12.25h2.21l.87-2.95h4.15Z"/><polygon class="cls-1" points="225.41 100.14 227.41 100.14 227.41 87.88 224.21 87.88 221.67 97.03 221.64 97.03 219.15 87.88 215.84 87.88 215.84 100.14 217.85 100.14 217.85 89.92 217.88 89.92 220.77 100.14 222.35 100.14 225.37 89.92 225.41 89.92 225.41 100.14"/><path class="cls-1" d="M232.79,94c0-3.37,1.12-4.58,2.52-4.58s2.53,1.21,2.53,4.58-1.13,4.58-2.53,4.58S232.79,97.38,232.79,94Zm-2.28,0c0,4.4,2.3,6.3,4.81,6.3s4.81-1.9,4.81-6.3-2.3-6.3-4.81-6.3S230.51,89.6,230.51,94Z"/><path class="cls-1" d="M243,99.77a5.46,5.46,0,0,0,2.75.54c2.3,0,4-1.19,4-3.68a3.34,3.34,0,0,0-2.09-3.3l-1.3-.74c-.68-.39-1.28-.74-1.28-1.65s.57-1.44,1.68-1.44A5.72,5.72,0,0,1,249,90l.1-1.88a7.78,7.78,0,0,0-2.52-.44c-2,0-3.8,1.14-3.8,3.34a3.45,3.45,0,0,0,2,3.21l1.12.63c1.07.6,1.57,1,1.57,1.86a1.68,1.68,0,0,1-1.83,1.77,4.87,4.87,0,0,1-2.56-.76Z"/><polygon class="cls-1" points="258.43 100.14 260.44 100.14 260.44 90.59 260.48 90.59 264.47 100.14 267.12 100.14 267.12 87.88 265.11 87.88 265.11 97.5 265.07 97.5 261.06 87.88 258.43 87.88 258.43 100.14"/><polygon class="cls-1" points="270.69 100.14 277.21 100.14 277.21 98.35 272.91 98.35 272.91 94.73 276.82 94.73 276.82 92.94 272.91 92.94 272.91 89.67 277.04 89.67 277.04 87.88 270.69 87.88 270.69 100.14"/><path class="cls-1" d="M285.18,95H287v3.3a3.5,3.5,0,0,1-1.28.23c-2.26,0-3.49-1.76-3.49-4.51,0-2.55,1.26-4.51,3.61-4.51a5.35,5.35,0,0,1,2.78.75l.12-2a7.76,7.76,0,0,0-2.94-.53c-3.87,0-5.93,2.67-5.93,6.3s2.06,6.3,5.93,6.3a7.1,7.1,0,0,0,3.27-.63V93.27h-3.91Z"/><path class="cls-1" d="M294.42,94c0-3.37,1.12-4.58,2.53-4.58s2.52,1.21,2.52,4.58-1.12,4.58-2.52,4.58S294.42,97.38,294.42,94Zm-2.28,0c0,4.4,2.3,6.3,4.81,6.3s4.81-1.9,4.81-6.3-2.3-6.3-4.81-6.3S292.13,89.6,292.13,94Z"/><path class="cls-1" d="M312.42,97.82a3.7,3.7,0,0,1-2.28.63c-1.83,0-3.4-1.26-3.4-4.44s1.57-4.44,3.4-4.44a4.54,4.54,0,0,1,2.28.67l.12-2a7.55,7.55,0,0,0-2.68-.51c-3.6,0-5.48,2.72-5.48,6.3s1.89,6.3,5.55,6.3a6.61,6.61,0,0,0,2.61-.44Z"/><rect class="cls-3" x="315.53" y="87.88" width="2.21" height="12.25"/><path class="cls-1" d="M323.16,94c0-3.37,1.12-4.58,2.52-4.58s2.52,1.21,2.52,4.58-1.12,4.58-2.52,4.58S323.16,97.38,323.16,94Zm-2.28,0c0,4.4,2.3,6.3,4.81,6.3s4.81-1.9,4.81-6.3-2.3-6.3-4.81-6.3S320.88,89.6,320.88,94Z"/><path class="cls-1" d="M333.33,99.77a5.46,5.46,0,0,0,2.75.54c2.3,0,4-1.19,4-3.68a3.34,3.34,0,0,0-2.09-3.3l-1.3-.74c-.68-.39-1.28-.74-1.28-1.65s.57-1.44,1.68-1.44a5.71,5.71,0,0,1,2.26.53l.1-1.88a7.79,7.79,0,0,0-2.52-.44c-2,0-3.81,1.14-3.81,3.34a3.45,3.45,0,0,0,2,3.21l1.12.63c1.07.6,1.57,1,1.57,1.86A1.68,1.68,0,0,1,336,98.52a4.88,4.88,0,0,1-2.56-.76Z"/></g></g></svg>