<svg xmlns="http://www.w3.org/2000/svg" viewBox="0 0 59.88 57.7"><defs><style>.cls-1{fill:#31a6ba;}</style></defs><title>recicla</title><g id="Capa_2" data-name="Capa 2"><g id="Capa_14" data-name="Capa 14"><path class="cls-1" d="M51.69,6.26l-1,1.85-1.92,3.45-2.27,4c-.42.75-.85,1.51-1.25,2.27a.68.68,0,0,1-.69.4q-6.88,0-13.76,0h-.38l0-.09,1.45-.73,3-1.52c.17-.09.14-.18.06-.31L34,14.14l-1.3-2.28c-.62-1.08-1.26-2.16-1.88-3.25-.42-.74-.83-1.49-1.25-2.23s-.85-1.48-1.28-2.21a14.22,14.22,0,0,0-.92-1.48,7.36,7.36,0,0,0-2.24-2C24.7.41,24.23.21,23.77,0h.37C29.2,0,34.26,0,39.31,0a14.69,14.69,0,0,1,2.89.33,3.28,3.28,0,0,1,1.34,1c.65.85,1.34,1.66,2,2.53.43.6.77,1.28,1.14,1.92l1.17,2c.1.18.23.34.32.52s.16.17.3.07l3.19-2.16Z"/><path class="cls-1" d="M58.37,35.65l-.54,1-1.37,2.5c-.37.66-.74,1.32-1.11,2l-1.26,2.26L52.51,46.2c-.6,1.09-1.2,2.19-1.82,3.28a2.45,2.45,0,0,1-.56.59c-.66.57-1.34,1.12-2,1.68a4.28,4.28,0,0,1-1.45.68,10.65,10.65,0,0,1-3.58.45c-1.48,0-3,0-4.44,0h-.42v4.82l-.07,0-.89-1.54c-.5-.87-1-1.74-1.49-2.62s-.9-1.65-1.36-2.46c-.66-1.17-1.32-2.33-2-3.49-.27-.47-.51-1-.8-1.41a.53.53,0,0,1,0-.63c.57-1,1.16-2.07,1.74-3.11L35.36,39c.54-1,1.06-1.93,1.59-2.89l1.1-2a1.7,1.7,0,0,1,.17-.19V38.3h.41c4.46,0,8.91,0,13.37,0a16.53,16.53,0,0,0,2.32-.39c1.3-.2,2.24-1.11,3.35-1.68A1.6,1.6,0,0,0,58,36a2.15,2.15,0,0,0,.25-.36Z"/><path class="cls-1" d="M1.09,35.2c.28.32.55.65.85,1a8.24,8.24,0,0,0,2,1.32,3.58,3.58,0,0,0,.62.27c.46.15.92.3,1.38.42a14.37,14.37,0,0,0,3.53.21H26.92v.42q0,6.88,0,13.76c0,.45,0,.45-.45.45-3.51,0-7,0-10.52,0a10.26,10.26,0,0,1-3.51-.66,7.51,7.51,0,0,1-3-2.1A4.27,4.27,0,0,1,9,49.44c-.75-1.36-1.5-2.73-2.26-4.08-.94-1.69-1.9-3.36-2.84-5-.76-1.36-1.51-2.72-2.26-4.09l-.55-1Z"/><path class="cls-1" d="M21.18,30.89l-3.78-2-.84,1.4-2.13,3.55c-.68,1.13-1.35,2.26-2,3.4a.62.62,0,0,1-.62.4c-.62,0-1.23.06-1.85,0a18.06,18.06,0,0,1-2.27-.13,10.46,10.46,0,0,1-4.57-1.47,10.7,10.7,0,0,1-2.36-2.2,3.19,3.19,0,0,1-.64-1.75c0-.19-.07-.38-.09-.57a5.7,5.7,0,0,1,.92-3.26c.54-1,1-2,1.53-3,.6-1.19,1.19-2.38,1.81-3.55a.3.3,0,0,0-.12-.46L.76,18.83l-.33-.27H.88c4.32,0,8.65,0,13,0a.9.9,0,0,1,.91.57c.66,1.22,1.34,2.42,2,3.63l2.65,4.8c.52.94,1.06,1.88,1.59,2.83.08.15.15.3.22.45Z"/><path class="cls-1" d="M41.22,26c1.25-.77,2.46-1.54,3.68-2.28s2.52-1.5,3.78-2.25l4.51-2.72c.63-.38.6-.38.95.27.67,1.27,1.36,2.53,2,3.8.49.93,1,1.86,1.46,2.79s1,1.85,1.46,2.78a6.24,6.24,0,0,1,.76,3.46.55.55,0,0,1,0,.22,10.65,10.65,0,0,1-1.91,2.83,8.71,8.71,0,0,1-2.75,1.68,10.82,10.82,0,0,1-2.9.7,35.78,35.78,0,0,1-4.25.36,1.24,1.24,0,0,1-1-.77c-.68-1.34-1.41-2.65-2.12-4L43.44,30.1l-2.17-4A1.2,1.2,0,0,1,41.22,26Z"/><path class="cls-1" d="M23,18.37l-2.28-1.43c-1.63-1-3.27-2-4.9-3s-3-1.88-4.46-2.81a4.61,4.61,0,0,0-.59-.34c-.26-.11-.26-.26-.13-.48q.72-1.23,1.43-2.46c.44-.78.89-1.55,1.32-2.34a11.84,11.84,0,0,1,3-3.94A4.67,4.67,0,0,1,18.87.37c.6,0,1.18-.24,1.78-.28a6.45,6.45,0,0,1,1.41.15,8.49,8.49,0,0,1,2.73.85,6.85,6.85,0,0,1,2,1.72A16.71,16.71,0,0,1,28.9,6.38a.75.75,0,0,1,0,.78c-.78,1.45-1.52,2.92-2.28,4.37l-2.43,4.65C23.8,16.91,23.41,17.62,23,18.37Z"/></g></g></svg>