<svg xmlns="http://www.w3.org/2000/svg" viewBox="0 0 70.61 69"><defs><style>.cls-1{fill:#fdc940;}.cls-2{fill:none;stroke:#f7f6f5;stroke-miterlimit:10;}</style></defs><title>Recurso 5</title><g id="Capa_2" data-name="Capa 2"><g id="Capa_14" data-name="Capa 14"><path class="cls-1" d="M70.4,37.72l.22-5.37-5.42-.21v.33A29.18,29.18,0,0,0,64,26.2l4.67-2.39L66.21,19,62,21.19a29.87,29.87,0,0,0-4.06-6l.46.46,3.84-3.8-3.84-3.8-3.84,3.8.3.3a30.42,30.42,0,0,0-5.52-3.78l2-4.4L46.41,1.79l-2,4.52A33.17,33.17,0,0,0,38,5V0H32V5a33.74,33.74,0,0,0-6.72,1.4l-2-4.57L18.39,4l2.08,4.47A30.33,30.33,0,0,0,15.38,12L11.8,8.1l-4,3.64,3.68,3.95.76-.7a29.89,29.89,0,0,0-4.19,6L3.11,19.2l-1.91,5L6,25.82A24.86,24.86,0,0,0,4.89,31H0v6H4.79a32.55,32.55,0,0,0,1.35,6.82l-4,1L3.46,50,8.29,48.7a29.83,29.83,0,0,0,3.63,5.22L8.38,57.82l4,3.58,3.37-3.73a30.44,30.44,0,0,0,5.41,3.49L19,65.88,24,68.1l2.24-4.89-.51-.14A31.79,31.79,0,0,0,32,64.32V69h6V64.3A33.42,33.42,0,0,0,44.49,63l1.85,4.68,5-2-2-4.78a30.38,30.38,0,0,0,4.85-3.22L57.41,61l4-3.64-3.29-3.53a29.86,29.86,0,0,0,3.76-5.51l4.77,1.77,1.91-5-4.6-1.71a29.16,29.16,0,0,0,1.19-5.87ZM35,47A12.31,12.31,0,1,1,47.61,34.64,12.48,12.48,0,0,1,35,47Z"/><circle class="cls-2" cx="35.05" cy="34.79" r="28.33"/><circle class="cls-2" cx="35.17" cy="34.77" r="14.16"/></g></g></svg>