<svg xmlns="http://www.w3.org/2000/svg" viewBox="0 0 134.14 140.89"><defs><style>.cls-1{fill:#fff;}</style></defs><title>teamicon</title><g id="Capa_2" data-name="Capa 2"><g id="Capa_1-2" data-name="Capa 1"><path class="cls-1" d="M66.71,18.1a104.07,104.07,0,0,0-1.18-16A2.35,2.35,0,0,0,64.06.18a2.61,2.61,0,0,0-2.54.35,2.19,2.19,0,0,0-.82,2.13,103.19,103.19,0,0,1,1.16,15.82,2,2,0,0,0,2.19,2h0A2.44,2.44,0,0,0,66.71,18.1Z"/><path class="cls-1" d="M121.79,29.14a2.28,2.28,0,0,0,.93-3.2,2.42,2.42,0,0,0-3.33-1,156.42,156.42,0,0,0-14.79,9,2.51,2.51,0,0,0-.6,3.53,2.26,2.26,0,0,0,1.86,1,2.33,2.33,0,0,0,1.33-.43A154.17,154.17,0,0,1,121.79,29.14Z"/><path class="cls-1" d="M133.72,57.82a2.19,2.19,0,0,0-2-.93c-5.6.44-11.29.69-16.9.76a2.31,2.31,0,0,0-2.05,1.18,2.59,2.59,0,0,0,0,2.56,2.26,2.26,0,0,0,2,1.09h0c5.66,0,11.39-.31,17-.75a2.39,2.39,0,0,0,2-1.37A2.6,2.6,0,0,0,133.72,57.82Z"/><path class="cls-1" d="M110.29,82.9a2.36,2.36,0,0,0-2.41.06,2.61,2.61,0,0,0-1.23,2.25,2.25,2.25,0,0,0,1.24,1.93A87.78,87.78,0,0,1,122.65,97a2.44,2.44,0,0,0,1.58.59,2.67,2.67,0,0,0,2-1,2.19,2.19,0,0,0-.28-3.19A93.41,93.41,0,0,0,110.29,82.9Z"/><path class="cls-1" d="M27.42,99.14a2.28,2.28,0,0,0-2.33.08h0L10.68,108A2.32,2.32,0,0,0,9.52,110a2.61,2.61,0,0,0,1.32,2.2,2.24,2.24,0,0,0,1.08.28,2.4,2.4,0,0,0,1.25-.36l14.4-8.73a2.32,2.32,0,0,0,1.17-2.07A2.61,2.61,0,0,0,27.42,99.14Z"/><path class="cls-1" d="M33.62,29.51a2.37,2.37,0,0,0,1.67.7A2.47,2.47,0,0,0,37,29.45a2.35,2.35,0,0,0,0-3.4,27.3,27.3,0,0,1-6.94-12,2.28,2.28,0,0,0-1.62-1.68A2.61,2.61,0,0,0,26,13a2.32,2.32,0,0,0-.6,2.29A31.83,31.83,0,0,0,33.62,29.51Z"/><path class="cls-1" d="M20.3,73.83a2.14,2.14,0,0,0-2.47-1.91l-15.59,2a2.53,2.53,0,0,0-2,1.55A2.58,2.58,0,0,0,.47,78a2.08,2.08,0,0,0,1.69.81l.33,0,15.59-2A2.59,2.59,0,0,0,20.3,73.83Z"/><path class="cls-1" d="M39.26,121.66c-.86.92-1.71,1.85-2.56,2.78-1.75,1.92-3.56,3.91-5.45,5.74a2.34,2.34,0,0,0,0,3.38,2.48,2.48,0,0,0,1.78.78,2.39,2.39,0,0,0,1.67-.69c1.93-1.87,3.76-3.88,5.53-5.83.85-.93,1.69-1.85,2.55-2.77a2.42,2.42,0,0,0-.15-3.48A2.29,2.29,0,0,0,39.26,121.66Z"/><path class="cls-1" d="M95.59,9.57a2.19,2.19,0,0,0-3,1.09L87.33,22.06a2.44,2.44,0,0,0,.22,2.49,2.62,2.62,0,0,0,2.09,1.12h.2a2.17,2.17,0,0,0,1.78-1.32L96.89,13A2.54,2.54,0,0,0,95.59,9.57Z"/><path class="cls-1" d="M99,110.48a2.15,2.15,0,0,0-2.92-1.15,2.58,2.58,0,0,0-1.4,3.4c1.73,4,3.6,8,5.57,11.86a2.22,2.22,0,0,0,1.88,1.27h.12a2.62,2.62,0,0,0,2.15-1.19,2.39,2.39,0,0,0,.12-2.44C102.55,118.38,100.69,114.42,99,110.48Z"/><path class="cls-1" d="M4.68,39.07a131,131,0,0,1,12,7.93,2.27,2.27,0,0,0,1.36.48,2,2,0,0,0,.82-.17,2.58,2.58,0,0,0,1.47-2.07,2.47,2.47,0,0,0-1-2.32A132.77,132.77,0,0,0,7.14,34.86a2.36,2.36,0,0,0-3.29.89A2.36,2.36,0,0,0,4.68,39.07Z"/><path class="cls-1" d="M67.22,119.31A2.34,2.34,0,0,0,65,121.83l1.08,16.81a2.38,2.38,0,0,0,2.44,2.26h.18a2.34,2.34,0,0,0,2.25-2.52l-1.08-16.81A2.39,2.39,0,0,0,67.22,119.31Z"/><path class="cls-1" d="M81.31,65.74a10,10,0,1,0-10-10A10,10,0,0,0,81.31,65.74Zm-26.73,0a10,10,0,1,0-10-10A10,10,0,0,0,54.58,65.74Zm0,6.68c-7.78,0-23.38,3.91-23.38,11.69v8.35H78V84.11C78,76.33,62.37,72.42,54.58,72.42Zm26.73,0c-1,0-2.07.07-3.24.17,3.88,2.81,6.58,6.58,6.58,11.53v8.35h20V84.11C104.69,76.33,89.09,72.42,81.31,72.42Z"/></g></g></svg>