<svg xmlns="http://www.w3.org/2000/svg" viewBox="0 0 72.82 78.36"><defs><style>.cls-1{fill:#fdc940;fill-rule:evenodd;}.cls-2{fill:#be30d7;}.cls-3{fill:#e28ff3;}.cls-4{fill:#4c035b;}</style></defs><title>valida</title><g id="Capa_2" data-name="Capa 2"><g id="Capa_14" data-name="Capa 14"><path class="cls-1" d="M30.2,56.19l0-2.17c.05-2.38-11.84-5.59-11.55-18.62a18.34,18.34,0,1,1,36.67.82c-.29,13-11.8,15.72-11.85,18.1Z"/><polygon class="cls-1" points="30.11 60.2 30.16 58.02 43.48 56.23 43.43 58.41 30.11 60.2"/><polygon class="cls-1" points="30.02 64.19 30.07 62.02 43.39 60.23 43.34 62.5 30.02 64.19"/><path class="cls-2" d="M71.49,46.14a1.36,1.36,0,0,1-.35,0l-8.79-2.43A1.33,1.33,0,0,1,63,41.11l8.79,2.43a1.33,1.33,0,0,1-.35,2.61Z"/><path class="cls-3" d="M67,64.13a1.32,1.32,0,0,1-.84-.3l-7-5.8a1.33,1.33,0,0,1,1.69-2l7,5.8A1.33,1.33,0,0,1,67,64.13Z"/><path class="cls-3" d="M62.05,28.7a1.33,1.33,0,0,1-.36-2.61l8.79-2.45a1.33,1.33,0,1,1,.71,2.56l-8.79,2.45A1.34,1.34,0,0,1,62.05,28.7Z"/><path class="cls-3" d="M1.33,44.13a1.33,1.33,0,0,1-.14-2.65l9.07-1a1.34,1.34,0,0,1,1.46,1.18,1.33,1.33,0,0,1-1.18,1.46l-9.07,1Z"/><path class="cls-2" d="M12.67,24.77a1.34,1.34,0,0,1-.36,0L3.53,22.27a1.33,1.33,0,0,1,.71-2.56L13,22.16a1.33,1.33,0,0,1-.36,2.61Z"/><path class="cls-3" d="M40,11.78a1.33,1.33,0,0,1-1.33-1.33V1.33a1.33,1.33,0,0,1,2.66,0v9.12A1.33,1.33,0,0,1,40,11.78Z"/><path class="cls-2" d="M54.44,16.47a1.33,1.33,0,0,1-1.11-2.06l5-7.6a1.33,1.33,0,1,1,2.22,1.47l-5,7.6A1.33,1.33,0,0,1,54.44,16.47Z"/><path class="cls-2" d="M25.32,13.41a1.33,1.33,0,0,1-1.09-.57L19,5.38a1.33,1.33,0,1,1,2.17-1.53l5.24,7.47a1.33,1.33,0,0,1-1.09,2.09Z"/><polygon class="cls-4" points="28.02 39.22 35.09 49.06 46.86 27.92 34.64 42.39 28.02 39.22"/><path class="cls-3" d="M26.84,78.36l-.21,0a1.33,1.33,0,0,1-1.1-1.52l1.43-9a1.33,1.33,0,0,1,2.62.42l-1.43,9A1.33,1.33,0,0,1,26.84,78.36Z"/><path class="cls-2" d="M10.69,68.24a1.33,1.33,0,0,1-.81-2.38l7.21-5.59a1.33,1.33,0,1,1,1.63,2.1L11.51,68A1.32,1.32,0,0,1,10.69,68.24Z"/><path class="cls-2" d="M50.47,78a1.33,1.33,0,0,1-1.2-.75l-4-8.21a1.33,1.33,0,1,1,2.39-1.15l4,8.21A1.33,1.33,0,0,1,50.47,78Z"/></g></g></svg>